<?xml version="1.0" encoding="utf-8"?>
<!-- Generator: Adobe Illustrator 25.1.0, SVG Export Plug-In . SVG Version: 6.00 Build 0)  -->
<svg version="1.1" id="Layer_1" xmlns="http://www.w3.org/2000/svg" xmlns:xlink="http://www.w3.org/1999/xlink" x="0px" y="0px"
	 viewBox="0 0 398.7 496.9" style="enable-background:new 0 0 398.7 496.9;" xml:space="preserve">
<style type="text/css">
	.st0{fill:#2CA2F8;}
</style>
<g>
	<path class="st0" d="M131.7,379.7c13.8-3.4,26.6-5.7,38.1-11.9c34.1-18.5,53.9-46.1,54-85.9c0.1-41.1-0.2-82.1,0.3-123.2 c0.1-8.5-2.2-11.8-10.8-10.7c-5.1,0.6-10.4,0.1-17.9,0.1c21.8-35.5,42.5-69.3,64.5-105.1c21.6,35.1,42.5,69.1,64.7,105.1 c-7,0-12.1,0.5-17.1-0.1c-8.7-1-11.8,1.8-11.6,11.1c0.6,34.2,0.4,68.4,0.1,102.7c-0.1,12.5-0.6,25.1-1.8,37.6 C287.1,372.7,195.8,418.9,131.7,379.7z"/>
	<path class="st0" d="M192.6,322.5c-13.2,25.7-45.5,41.5-72.1,36c-24-5-44.5-29.8-45.3-59.1c-1.3-43.3-0.7-86.7-0.9-130 c-0.1-21.4,0-21.4,21.5-21.4c13.3,0,26.6,0.5,39.9-0.2c8-0.4,10.2,2.2,10.2,10.2c-0.4,39.2-0.2,78.3-0.2,117.5 C145.6,308,159,321.7,192.6,322.5z"/>
</g>
</svg>
