<?xml version="1.0" encoding="utf-8"?>
<!-- Generator: Adobe Illustrator 25.1.0, SVG Export Plug-In . SVG Version: 6.00 Build 0)  -->
<svg version="1.1" id="Layer_1" xmlns="http://www.w3.org/2000/svg" xmlns:xlink="http://www.w3.org/1999/xlink" x="0px" y="0px"
	 viewBox="0 0 97 58" style="enable-background:new 0 0 97 58;" xml:space="preserve">
<style type="text/css">
	.st0{fill:#333333;}
	.st1{fill:#2CA2F8;}
</style>
<desc>Created with Sketch.</desc>
<g>
	<path class="st0" d="M34.5,26.5c0.2-0.1,0.3-0.2,0.5-0.3c0.2,0,0.3-0.1,0.5-0.1h2.8c0.2,0,0.4,0,0.6,0.1c0.2,0.1,0.3,0.2,0.4,0.3
		c0.1,0.1,0.2,0.3,0.2,0.4c0.1,0.2,0.1,0.3,0.2,0.5l0.8,2.2c0.3-0.4,0.7-0.9,1-1.4c0.3-0.5,0.8-0.9,1.2-1.3s1-0.7,1.7-0.9
		c0.7-0.2,1.5-0.4,2.4-0.4c1.7,0,3.2,0.3,4.6,0.9c1.4,0.6,2.6,1.5,3.7,2.6c1,1.1,1.8,2.4,2.4,3.8c0.6,1.5,0.9,3.1,0.9,4.8
		c0,1.7-0.3,3.3-0.9,4.7c-0.6,1.5-1.4,2.8-2.4,3.8s-2.2,1.9-3.7,2.6c-1.4,0.6-3,0.9-4.6,0.9c-0.8,0-1.5-0.1-2.1-0.3
		c-0.6-0.2-1.1-0.4-1.5-0.7c-0.4-0.3-0.8-0.6-1.2-1c-0.3-0.4-0.7-0.7-1-1.1v8.6c0,0.4-0.1,0.7-0.3,0.9c-0.2,0.3-0.6,0.4-1,0.4h-4.2
		c-0.1,0-0.3,0-0.5-0.1c-0.2-0.1-0.3-0.1-0.5-0.3c-0.1-0.1-0.3-0.2-0.4-0.4c-0.1-0.2-0.1-0.4-0.1-0.6v-28c0-0.2,0-0.4,0.1-0.6
		C34.3,26.8,34.4,26.7,34.5,26.5z M51.7,38c0-0.8-0.1-1.5-0.4-2.2c-0.3-0.7-0.6-1.3-1.1-1.8c-0.5-0.5-1-0.9-1.7-1.3
		c-0.7-0.3-1.4-0.5-2.2-0.5c-0.8,0-1.5,0.1-2.2,0.4c-0.7,0.3-1.3,0.7-1.8,1.2c-0.5,0.5-0.9,1.1-1.3,1.8c-0.3,0.7-0.5,1.4-0.5,2.2V38
		c0,0.8,0.2,1.6,0.5,2.3c0.3,0.7,0.7,1.3,1.3,1.8c0.5,0.5,1.1,0.9,1.9,1.2c0.7,0.3,1.5,0.5,2.3,0.5c0.8,0,1.5-0.2,2.2-0.5
		s1.2-0.7,1.7-1.2c0.5-0.5,0.8-1.1,1.1-1.8C51.6,39.6,51.7,38.8,51.7,38z"/>
	<path class="st0" d="M62.1,20.8c0-0.4,0.1-0.7,0.3-1c0.2-0.3,0.5-0.4,1-0.4H68c0.1,0,0.3,0,0.4,0.1c0.1,0.1,0.3,0.2,0.4,0.3
		c0.1,0.1,0.2,0.3,0.3,0.4c0.1,0.2,0.1,0.4,0.1,0.6v27.5c0,0.5-0.1,0.8-0.4,1.1c-0.3,0.2-0.6,0.4-1,0.4h-4.3c-0.5,0-0.8-0.1-1-0.4
		c-0.2-0.2-0.3-0.6-0.3-1.1V20.8z"/>
	<path class="st0" d="M72.8,38c0-1.1,0.1-2.2,0.4-3.3c0.3-1,0.7-2,1.2-2.9c0.5-0.9,1.1-1.7,1.9-2.4c0.7-0.7,1.5-1.4,2.4-1.9
		s1.9-0.9,2.9-1.2c1-0.3,2.1-0.4,3.2-0.4c1.7,0,3.2,0.3,4.7,0.9c1.5,0.6,2.7,1.5,3.8,2.6c1.1,1.1,1.9,2.4,2.6,3.8
		c0.6,1.5,0.9,3.1,0.9,4.8c0,1.1-0.1,2.2-0.4,3.2c-0.3,1-0.7,2-1.2,2.9c-0.5,0.9-1.1,1.7-1.9,2.4c-0.7,0.7-1.5,1.4-2.4,1.9
		c-0.9,0.5-1.9,0.9-2.9,1.2c-1,0.3-2.1,0.4-3.2,0.4c-1.1,0-2.2-0.1-3.2-0.4c-1-0.3-2-0.7-2.9-1.2c-0.9-0.5-1.7-1.1-2.4-1.9
		c-0.7-0.7-1.4-1.5-1.9-2.4c-0.5-0.9-0.9-1.9-1.2-2.9S72.8,39.1,72.8,38z M79.5,38c0,0.8,0.1,1.6,0.4,2.3c0.3,0.7,0.6,1.3,1.1,1.8
		c0.5,0.5,1,0.9,1.7,1.2s1.4,0.5,2.2,0.5c0.8,0,1.5-0.2,2.2-0.5c0.6-0.3,1.2-0.7,1.6-1.2c0.4-0.5,0.8-1.1,1-1.8
		c0.2-0.7,0.4-1.5,0.4-2.3c0-0.8-0.1-1.5-0.4-2.2c-0.2-0.7-0.6-1.3-1-1.9c-0.4-0.5-1-1-1.6-1.3c-0.6-0.3-1.4-0.5-2.2-0.5
		c-0.8,0-1.6,0.2-2.2,0.5c-0.7,0.3-1.2,0.7-1.7,1.3c-0.5,0.5-0.8,1.2-1.1,1.9C79.7,36.5,79.5,37.2,79.5,38z"/>
</g>
<g>
	<path class="st1" d="M7.7,46.9c1.8-0.5,3.5-0.8,5.1-1.6c4.6-2.5,7.2-6.2,7.2-11.5c0-5.5,0-11,0-16.5c0-1.1-0.3-1.6-1.4-1.4
		c-0.7,0.1-1.4,0-2.4,0c2.9-4.7,5.7-9.3,8.6-14.1c2.9,4.7,5.7,9.2,8.6,14.1c-0.9,0-1.6,0.1-2.3,0c-1.2-0.1-1.6,0.2-1.6,1.5
		c0.1,4.6,0.1,9.1,0,13.7c0,1.7-0.1,3.4-0.2,5C28.5,45.9,16.2,52.1,7.7,46.9z"/>
	<path class="st1" d="M15.8,39.2c-1.8,3.4-6.1,5.6-9.6,4.8c-3.2-0.7-5.9-4-6.1-7.9C-0.1,30.3,0,24.5,0,18.8c0-2.9,0-2.9,2.9-2.9
		c1.8,0,3.6,0.1,5.3,0c1.1-0.1,1.4,0.3,1.4,1.4c-0.1,5.2,0,10.5,0,15.7C9.5,37.3,11.3,39.1,15.8,39.2z"/>
</g>
</svg>
